<svg width="905" height="343" viewBox="0 0 905 343" fill="none" xmlns="http://www.w3.org/2000/svg">
<path d="M287.308 334.115V325.298M530.692 334.115V265.192H520.091M478.015 334.115V265.192M478.015 265.192H466.431M478.015 265.192H488.07M413.098 334.115V265.192M413.098 265.192H402.279M413.098 265.192H423.918M348.181 334.115V265.192M348.181 265.192H337.908M348.181 265.192H359.438M287.308 278.203V265.192H298.346" stroke="#FB1212" stroke-width="6"/>
<path d="M108.904 226.04H3.54759V222.207V95.4948M108.904 226.04H174.614L214.917 187.818H243.501M108.904 226.04V237.32M3 39.3123V3.5H283.256M472.721 187.818H391.349M391.349 187.818V3.5M391.349 187.818H354.387M391.349 3.5H901.92V56.0684M391.349 3.5H283.256M243.501 187.818L242.995 170.186M243.501 187.818H298.917M242.296 3.82855V20.6943M242.995 110.608H283.256V3.5M242.995 110.608V94.6186M242.995 110.608V122.765M108.904 306.973V339.5H901.92V255.5V252.981" stroke="black" stroke-width="6"/>
</svg>