<svg  class="h-8" viewBox="0 0 616 85" fill="none" xmlns="http://www.w3.org/2000/svg">
  <path d="M47.3182 71V84.3636H0L0 71H47.3182ZM94.6619 71V84.3636H47.3438V71H94.6619ZM117.324 71H96.8693L119.915 1.18182H145.824L168.869 71H148.415L133.142 20.4091H132.597L117.324 71ZM113.506 43.4545H151.96V57.6364H113.506V43.4545ZM217.653 24.2273C217.358 23.0227 216.892 21.9659 216.256 21.0568C215.619 20.125 214.824 19.3409 213.869 18.7045C212.938 18.0455 211.847 17.5568 210.597 17.2386C209.369 16.8977 208.017 16.7273 206.54 16.7273C203.358 16.7273 200.642 17.4886 198.392 19.0114C196.165 20.5341 194.46 22.7273 193.278 25.5909C192.119 28.4545 191.54 31.9091 191.54 35.9545C191.54 40.0455 192.097 43.5455 193.21 46.4545C194.324 49.3636 195.983 51.5909 198.188 53.1364C200.392 54.6818 203.131 55.4545 206.403 55.4545C209.29 55.4545 211.688 55.0341 213.597 54.1932C215.528 53.3523 216.972 52.1591 217.926 50.6136C218.881 49.0682 219.358 47.25 219.358 45.1591L222.631 45.5H206.676V32H237.631V41.6818C237.631 48.0455 236.278 53.4886 233.574 58.0114C230.892 62.5114 227.188 65.9659 222.46 68.375C217.756 70.7614 212.358 71.9545 206.267 71.9545C199.472 71.9545 193.506 70.5114 188.369 67.625C183.233 64.7386 179.222 60.625 176.335 55.2841C173.472 49.9432 172.04 43.5909 172.04 36.2273C172.04 30.4545 172.915 25.3409 174.665 20.8864C176.438 16.4318 178.892 12.6705 182.028 9.60227C185.165 6.51136 188.79 4.18182 192.903 2.61363C197.017 1.02272 201.426 0.22727 206.131 0.22727C210.267 0.22727 214.108 0.81818 217.653 2C221.222 3.15909 224.369 4.81818 227.097 6.97727C229.847 9.11363 232.063 11.6477 233.744 14.5795C235.426 17.5114 236.449 20.7273 236.812 24.2273H217.653ZM306.878 1.18182V71H291.06L265.832 34.3182H265.423V71H246.469V1.18182H262.56L287.378 37.7273H287.923V1.18182H306.878ZM383.48 36.0909C383.48 43.8636 381.969 50.4205 378.946 55.7614C375.923 61.0795 371.844 65.1136 366.707 67.8636C361.571 70.5909 355.844 71.9545 349.526 71.9545C343.162 71.9545 337.412 70.5795 332.276 67.8295C327.162 65.0568 323.094 61.0114 320.071 55.6932C317.071 50.3523 315.571 43.8182 315.571 36.0909C315.571 28.3182 317.071 21.7727 320.071 16.4545C323.094 11.1136 327.162 7.07954 332.276 4.35227C337.412 1.60227 343.162 0.22727 349.526 0.22727C355.844 0.22727 361.571 1.60227 366.707 4.35227C371.844 7.07954 375.923 11.1136 378.946 16.4545C381.969 21.7727 383.48 28.3182 383.48 36.0909ZM363.98 36.0909C363.98 31.9091 363.423 28.3864 362.31 25.5227C361.219 22.6364 359.594 20.4545 357.435 18.9773C355.298 17.4773 352.662 16.7273 349.526 16.7273C346.389 16.7273 343.741 17.4773 341.582 18.9773C339.446 20.4545 337.821 22.6364 336.707 25.5227C335.616 28.3864 335.071 31.9091 335.071 36.0909C335.071 40.2727 335.616 43.8068 336.707 46.6932C337.821 49.5568 339.446 51.7386 341.582 53.2386C343.741 54.7159 346.389 55.4545 349.526 55.4545C352.662 55.4545 355.298 54.7159 357.435 53.2386C359.594 51.7386 361.219 49.5568 362.31 46.6932C363.423 43.8068 363.98 40.2727 363.98 36.0909ZM429.886 23C429.705 20.7273 428.852 18.9545 427.33 17.6818C425.83 16.4091 423.545 15.7727 420.477 15.7727C418.523 15.7727 416.92 16.0114 415.67 16.4886C414.443 16.9432 413.534 17.5682 412.943 18.3636C412.352 19.1591 412.045 20.0682 412.023 21.0909C411.977 21.9318 412.125 22.6932 412.466 23.375C412.83 24.0341 413.398 24.6364 414.17 25.1818C414.943 25.7045 415.932 26.1818 417.136 26.6136C418.341 27.0455 419.773 27.4318 421.432 27.7727L427.159 29C431.023 29.8182 434.33 30.8977 437.08 32.2386C439.83 33.5795 442.08 35.1591 443.83 36.9773C445.58 38.7727 446.864 40.7955 447.682 43.0455C448.523 45.2955 448.955 47.75 448.977 50.4091C448.955 55 447.807 58.8864 445.534 62.0682C443.261 65.25 440.011 67.6705 435.784 69.3295C431.58 70.9886 426.523 71.8182 420.614 71.8182C414.545 71.8182 409.25 70.9205 404.727 69.125C400.227 67.3295 396.727 64.5682 394.227 60.8409C391.75 57.0909 390.5 52.2955 390.477 46.4545H408.477C408.591 48.5909 409.125 50.3864 410.08 51.8409C411.034 53.2955 412.375 54.3977 414.102 55.1477C415.852 55.8977 417.932 56.2727 420.341 56.2727C422.364 56.2727 424.057 56.0227 425.42 55.5227C426.784 55.0227 427.818 54.3295 428.523 53.4432C429.227 52.5568 429.591 51.5455 429.614 50.4091C429.591 49.3409 429.239 48.4091 428.557 47.6136C427.898 46.7955 426.807 46.0682 425.284 45.4318C423.761 44.7727 421.705 44.1591 419.114 43.5909L412.159 42.0909C405.977 40.75 401.102 38.5114 397.534 35.375C393.989 32.2159 392.227 27.9091 392.25 22.4545C392.227 18.0227 393.409 14.1477 395.795 10.8295C398.205 7.48863 401.534 4.88636 405.784 3.02272C410.057 1.15909 414.955 0.22727 420.477 0.22727C426.114 0.22727 430.989 1.17045 435.102 3.05682C439.216 4.94318 442.386 7.60227 444.614 11.0341C446.864 14.4432 448 18.4318 448.023 23H429.886ZM454.278 16.4545V1.18182H514.96V16.4545H493.96V71H475.278V16.4545H454.278ZM541.048 1.18182V71H522.094V1.18182H541.048ZM615.213 27.3636H595.986C595.849 25.7727 595.486 24.3295 594.895 23.0341C594.327 21.7386 593.531 20.625 592.509 19.6932C591.509 18.7386 590.293 18.0114 588.861 17.5114C587.429 16.9886 585.804 16.7273 583.986 16.7273C580.804 16.7273 578.111 17.5 575.906 19.0455C573.724 20.5909 572.065 22.8068 570.929 25.6932C569.815 28.5795 569.259 32.0455 569.259 36.0909C569.259 40.3636 569.827 43.9432 570.963 46.8295C572.122 49.6932 573.793 51.8523 575.974 53.3068C578.156 54.7386 580.781 55.4545 583.849 55.4545C585.599 55.4545 587.168 55.2386 588.554 54.8068C589.94 54.3523 591.145 53.7045 592.168 52.8636C593.19 52.0227 594.02 51.0114 594.656 49.8295C595.315 48.625 595.759 47.2727 595.986 45.7727L615.213 45.9091C614.986 48.8636 614.156 51.875 612.724 54.9432C611.293 57.9886 609.259 60.8068 606.622 63.3977C604.009 65.9659 600.77 68.0341 596.906 69.6023C593.043 71.1705 588.554 71.9545 583.44 71.9545C577.031 71.9545 571.281 70.5795 566.19 67.8295C561.122 65.0795 557.111 61.0341 554.156 55.6932C551.224 50.3523 549.759 43.8182 549.759 36.0909C549.759 28.3182 551.259 21.7727 554.259 16.4545C557.259 11.1136 561.304 7.07954 566.395 4.35227C571.486 1.60227 577.168 0.22727 583.44 0.22727C587.849 0.22727 591.906 0.829542 595.611 2.03409C599.315 3.23863 602.565 5 605.361 7.31818C608.156 9.61363 610.406 12.4432 612.111 15.8068C613.815 19.1705 614.849 23.0227 615.213 27.3636Z" class="fill-current text-base-content" />
</svg>